<svg xmlns="http://www.w3.org/2000/svg" width="24" height="24" fill="none" viewBox="0 0 24 24"><path fill="#737D8C" fill-rule="evenodd" d="M1.99976 5.64759V17.1382C1.99976 18.1507 2.8206 18.9716 3.83316 18.9716H14.4206L1.99976 5.64759ZM15.9125 15.1C16.3503 13.8013 17.16 12.7192 18.4289 12.196C17.8036 11.6568 17.4058 10.846 17.4058 9.93928C17.4058 8.31596 18.6808 7 20.2537 7C20.7764 7 21.2661 7.14529 21.6871 7.39886V5.83341C21.6871 4.82084 20.8663 4 19.8537 4H5.5648L15.9125 15.1Z" clip-rule="evenodd"/><ellipse cx="20.254" cy="9.939" fill="#737D8C" rx="1.992" ry="2.056"/><path fill="#737D8C" fill-rule="evenodd" d="M20.2448 19.7472C20.2476 19.7472 20.2503 19.7472 20.2531 19.7472C21.0024 19.7472 23.9998 19.7472 23.9998 17.4271C23.9998 15.1069 22.8845 12.7868 20.2531 12.7868C18.1577 12.7868 17.056 14.1935 16.6692 15.9116L20.2448 19.7472Z" clip-rule="evenodd"/><rect width="26.118" height="2.244" fill="#737D8C" rx="1.122" transform="matrix(0.681883 0.731461 -0.742244 0.670129 1.66553 2)"/></svg>